<svg xmlns="http://www.w3.org/2000/svg" width="22" height="22" fill="currentColor" viewBox="0 0 16 16">
  <path d="M12.5 0c-.157 0-.311.01-.565.027A1.5 1.5 0 0 0 11 1.5V14a.5.5 0 0 0 .8.4l2.7-2.25A.5.5 0 0 1 15.5 12a.5.5 0 0 1 .5.5v1a.5.5 0 0 1-.5.5h-3a.5.5 0 0 1-.5-.5v-1a.5.5 0 0 1 .5-.5h.5V1.5A.5.5 0 0 0 12.5 1z"/>
  <path d="M8.5 0c-.157 0-.311.01-.565.027A1.5 1.5 0 0 0 7 1.5V14a.5.5 0 0 0 .8.4l2.7-2.25A.5.5 0 0 1 11.5 12a.5.5 0 0 1 .5.5v1a.5.5 0 0 1-.5.5h-3a.5.5 0 0 1-.5-.5v-1a.5.5 0 0 1 .5-.5h.5V1.5A.5.5 0 0 0 8.5 1z"/>
  <path d="M4.5 0c-.157 0-.311.01-.565.027A1.5 1.5 0 0 0 3 1.5V14a.5.5 0 0 0 .8.4l2.7-2.25A.5.5 0 0 1 7.5 12a.5.5 0 0 1 .5.5v1a.5.5 0 0 1-.5.5h-3a.5.5 0 0 1-.5-.5v-1a.5.5 0 0 1 .5-.5h.5V1.5A.5.5 0 0 0 4.5 1z"/>
</svg> 